<svg height="130" viewBox="0 0 476 130" width="476" xmlns="http://www.w3.org/2000/svg"><g fill="none" fill-rule="evenodd"><g fill-rule="nonzero" transform="translate(0 .470243)"><path d="m141.181006 56.4322533h-13.67933l-2.271285 6.6589944h-9.29162l13.369609-36.2373185h10.169162l13.369609 36.2373185h-9.39486zm-2.271285-6.7106146-4.54257-13.421229-4.59419 13.421229zm58.382346-22.8677095v36.2373185h-8.827039v-22.6612291l-7.846257 22.6612291h-7.639777l-7.897877-22.7128492v22.7128492h-8.827039v-36.2373185h10.788604l9.859441 25.2422347 9.652961-25.2422347zm14.918212 23.4355308v12.8017877h-8.827039v-36.495419h14.298771c4.33609 0 7.639777 1.075419 9.911062 3.226257 2.271285 2.1508379 3.406927 5.0501676 3.406927 8.6979888 0 2.2712849-.507598 4.2930726-1.522793 6.0653631-1.015196 1.7722905-2.520782 3.1660335-4.51676 4.1812291-1.995978 1.0151955-4.422123 1.5227933-7.278436 1.5227933zm4.49095-7.0719553c3.544581 0 5.316872-1.5658101 5.316872-4.6974302 0-3.2004469-1.772291-4.8006704-5.316872-4.8006704h-4.49095v9.4981006z" fill="#005af0"/><path d="m0 43.4947238c0 24.0206542 19.4740695 43.4947237 43.4947238 43.4947237 24.0236176 0 43.4947237-19.4740695 43.4947237-43.4947237 0-24.0206543-19.4711061-43.4947238-43.4947237-43.4947238-24.0206543 0-43.4947238 19.4740695-43.4947238 43.4947238z" fill="#fff"/><path d="m40.1601601 69.8757554h-3.305599l3.2708033-19.7843637-10.1198362.0145301h-.1449186c-.9094699-.0031546-1.6454389-.7404618-1.647064-1.6499317 0-.3914525.3624879-1.0524768.3624879-1.0524768l18.1865301-30.3303525 3.3636239.0144345-3.3519616 19.8161961 10.1720298-.0114711h.1623166c.9105214 0 1.6499317.7364469 1.6499317 1.6468727 0 .3711869-.1450142.6959156-.3508255.9714141zm3.3345637-69.8757554c-24.0206543 0-43.4947238 19.4740695-43.4947238 43.4947238 0 24.0206542 19.4740695 43.4947237 43.4947238 43.4947237 24.0236176 0 43.4947237-19.4740695 43.4947237-43.4947237 0-24.0206543-19.4711061-43.4947238-43.4947237-43.4947238z" fill="#005af0"/></g><g transform="translate(13.944827 47.459691)"><g transform="translate(0 3.256991)"><path d="m20.8435393 1.05482648c-2.1975545 13.47555472 4.2708835 23.81705012 19.4053173 31.02448672 14.7981156 7.0472712 21.3197044 18.2375485 19.5647699 33.5708317l-.1324784 1.0518712h-20.2493557c.6620652-5.0582839-.0845682-8.6373555-2.2399036-10.7372146-7.9924485-7.7867328-15.8709629-7.9604893-23.9281711-16.5927335-10.30163545-11.0368581-14.602482-23.3813652-12.90253971-37.0335209l.17695257-1.28372062z" fill="#ff4c4c" fill-rule="nonzero"/><path d="m30.8552841 7.89012709c3.0958494-.12977134 5.6078887.06371775 7.5286361.62760168 1.487029.43655492 2.5929669 1.07225224 3.1788095 2.06457393.5853481.9914842.6069861 2.2646961.2699329 3.7741499-.4356301 1.9509186-1.4819373 4.2391013-3.0938382 6.8809071-2.4025258 4.0844809-4.7029496 7.1709571-6.9452629 9.2638985-10.3212642 9.6337126-21.84458277 13.7631751-34.59100178 12.3152955v-16.0765718c4.88678214.4757878 9.40240165-.2385603 13.55077778-2.1161544 4.7401116-2.145419 9.0153046-5.8263198 12.7858785-11.0940548.6974985-.9391858 4.2406843-5.51073214 7.3160681-5.63964561z" fill="#2e53c2" stroke="#ff4c4c" stroke-width="4" transform="matrix(0 1 -1 0 45.101893 5.852267)"/><path d="m61.0587995 0v24.5247166h-24.5247159v-24.5247166z" fill="#ffb500" fill-rule="nonzero"/></g><path d="m287.870858 16.7591241c12.654849 0 21.718457 9.6621481 21.718457 23.2575599 0 13.7664234-8.636079 23.4285715-21.205422 23.4285715-9.169801 0-13.621727-5.3800324-15.147342-8.1594934l-.072679-.1345629h-.513034v26.8488008h-6.754954v-64.1293014h6.498436v7.0114703h.513035c1.111574-1.6246089 5.301355-8.1230448 14.963503-8.1230448zm-181.946145 0c7.695517 0 15.134516 4.4462982 16.160584 12.4838373l-5.899895 1.7101147c-.59854-5.2158498-4.873827-8.379562-10.688217-8.379562-5.557873 0-9.1491139 2.7361835-9.1491139 6.5839416 0 11.286757 26.6777899 1.8811262 26.6777899 20.2648592 0 8.3795621-6.925965 14.0229406-17.272159 14.0229406-10.004171 0-16.2460897-5.4723671-17.2721585-13.4244004l6.1564129-1.5391033c.5130345 5.9854015 4.7028155 9.0636079 11.4577686 9.0636079 6.669447 0 10.346194-3.2492179 10.346194-7.7810218 0-5.8674036-5.874236-6.8805354-12.100925-8.1350586l-.796386-.1618559c-6.7783198-1.3935959-13.6949727-3.3267352-13.6949727-12.3099677 0-7.5245047 6.7549531-12.3983316 16.0750777-12.3983316zm77.070846 0c13.424401 0 23.172055 10.004171 23.172055 23.3430657s-9.918666 23.3430657-23.25756 23.3430657c-13.338895 0-23.172055-9.8331596-23.172055-23.3430657 0-13.4244004 10.004171-23.3430657 23.25756-23.3430657zm178.269399 0c13.290156 0 20.965433 9.2184588 21.11761 22.3455441l.002306.3989814v2.4796664h-35.741397c.085506 9.9186652 5.899896 15.476538 15.134515 15.476538 6.134299 0 11.773103-3.4684725 13.345421-9.4315115l.078979-.3161423 6.583942 1.5391032c-2.479666 8.2940563-9.833159 14.1939521-20.093848 14.1939521-13.509906 0-21.974974-9.4911366-21.974974-23.1720542 0-14.1939521 9.747654-23.5140772 21.547446-23.5140772zm42.938968 0c7.695516 0 15.134515 4.4462982 16.160584 12.4838373l-5.899896 1.7101147c-.59854-5.2158498-4.873827-8.379562-10.688217-8.379562-5.557873 0-9.149113 2.7361835-9.149113 6.5839416 0 11.286757 26.677789 1.8811262 26.677789 20.2648592 0 8.3795621-6.925965 14.0229406-17.272159 14.0229406-10.004171 0-16.246089-5.4723671-17.272158-13.4244004l6.156413-1.5391033c.513034 5.9854015 4.702815 9.0636079 11.457768 9.0636079 6.669448 0 10.346194-3.2492179 10.346194-7.7810218 0-5.460144-5.087069-6.7165043-10.811272-7.8756121l-.594249-.1197292-.298487-.0599201-.79479-.1602501-.538342-.1102265c-6.733274-1.3916882-13.555143-3.3596757-13.555143-12.2811442 0-7.5245047 6.754953-12.3983316 16.075078-12.3983316zm40.202785 0c7.695516 0 15.134515 4.4462982 16.160584 12.4838373l-5.899896 1.7101147c-.59854-5.2158498-4.873827-8.379562-10.688217-8.379562-5.557873 0-9.149114 2.7361835-9.149114 6.5839416 0 11.286757 26.67779 1.8811262 26.67779 20.2648592 0 8.3795621-6.925965 14.0229406-17.272159 14.0229406-10.004171 0-16.246089-5.4723671-17.272158-13.4244004l6.156413-1.5391033c.513034 5.9854015 4.702815 9.0636079 11.457768 9.0636079 6.669447 0 10.346194-3.2492179 10.346194-7.7810218 0-5.8674036-5.874235-6.8805354-12.100925-8.1350586l-.796386-.1618559c-6.77832-1.3935959-13.694973-3.3267352-13.694973-12.3099677 0-7.5245047 6.754954-12.3983316 16.075079-12.3983316zm-302.297982-11.79979146v12.91136596h13.680917v5.7288843h-13.680917v25.9937435c0 4.7883211 1.966632 6.8404588 6.669447 6.8404588h6.41293v5.8998957h-6.327424c-8.123045 0-13.509906-3.6767466-13.509906-12.6548488v-26.0792492h-8.379562v-5.7288843h8.80709v-12.91136596zm93.231429 11.79979146v6.7549531h-4.018769c-8.123045 0-11.457769 6.5839416-11.457769 15.0490093v23.7705944h-6.754953v-44.4629823h6.669448v7.438999h.513034c1.282586-3.7622523 5.643379-8.5505735 12.141814-8.5505735zm18.65534 1.1115745v44.4629823h-6.754953v-38.734098h-8.379562v-5.7288843zm84.766362-1.1115745v6.7549531h-4.01877c-8.123044 0-11.457768 6.5839416-11.457768 15.0490093v23.7705944h-6.754953v-44.4629823h6.669447v7.438999h.513035c1.282586-3.7622523 5.643378-8.5505735 12.141814-8.5505735zm-171.542867 19.127203c-2.58927 9.6632872 2.07655 18.3493423 11.244284 20.8058292 9.250326 2.4786174 17.656204-2.7934089 20.223343-12.3741038 2.545009-9.4981028-2.07655-18.3493423-11.326877-20.8279597-9.250326-2.4786175-17.617872 2.9807238-20.14075 12.3962343zm106.021855 1.503575c-1.900533 10.778459 3.737258 18.1975888 11.989516 19.6526845 8.589084 1.5144873 16.052758-4.375924 17.81966-14.3965226 1.811446-10.2732187-3.598541-17.9994795-12.019212-19.484271-9.094324-1.6035749-16.171541 5.0495776-17.789964 14.2281091zm74.745866-2.5068763-.056777.3536302 28.53542 2.4965258c.378948-9.2367405-5.622058-14.2250429-12.947569-14.865942-7.136897-.6243976-14.143383 3.9332603-15.531074 12.015786zm-97.411445-34.8830258c2.907195 0 4.959332 2.13764338 4.959332 4.8738269 0 2.82168926-2.052137 4.95933264-4.959332 4.95933264-2.82169 0-4.873827-2.13764338-4.873827-4.95933264 0-2.73618352 2.052137-4.8738269 4.873827-4.8738269z" fill="#000" fill-rule="nonzero"/></g></g></svg>