<svg height="263" viewBox="0 0 317 263" width="317" xmlns="http://www.w3.org/2000/svg"><g fill="none" fill-rule="evenodd" transform="translate(.5 .33469)"><circle cx="221.095933" cy="95" fill="#c33" r="95"/><path d="m119 24.25c-65.7152 0-119 53.2848-119 119s53.2848 119 119 119 119-53.2848 119-119-53.2848-119-119-119zm-102 119c0-14.4024 3.1824-28.0772 8.84-40.4328l48.6472 129.8256c-34.0272-16.0888-57.4872-50.0752-57.4872-89.3928zm102 99.348c-10.0028 0-19.6724-1.428-28.8048-4.0528l30.6-86.6252 31.3548 83.6672c.2176.4828.4624.9452.7276 1.3804-10.5876 3.6448-22.0048 5.6372-33.8776 5.6372zm14.0352-145.928c6.1472-.3128 11.6824-.952 11.6824-.952 5.508-.6256 4.8552-8.5-.6324-8.1804 0 0-16.5104 1.2648-27.1728 1.2648-10.0096 0-26.86-1.2648-26.86-1.2648-5.508-.3128-6.1472 7.8676-.6596 8.1872 0 0 5.202.6324 10.6896.9452l15.8848 42.4048-22.3244 65.2052-37.1552-107.61c6.1676-.3128 11.6824-.952 11.6824-.952 5.4876-.6256 4.8552-8.5-.6324-8.1804 0 0-16.5104 1.2648-27.1728 1.2648-1.8972 0-4.1548-.0476-6.562-.1224 18.2172-26.9552 49.572-44.7848 85.1972-44.7848 26.5472 0 50.728 9.8872 68.8772 26.0848-.442-.0272-.8772-.0952-1.3396-.0952-10.03 0-17.1428 8.5-17.1428 17.6324 0 8.1804 4.8552 15.1028 10.0028 23.3104 3.8896 6.63 8.432 15.13 8.432 27.3972 0 8.5-3.3524 18.36-7.752 32.13l-10.2 33.1024zm87.9648 46.58c0 36.652-20.4 68.6528-50.728 85.85l31.1508-87.72c5.8072-14.1848 7.752-25.5 7.752-35.5776 0-3.672-.2448-7.0448-.68-10.2272 7.9628 14.1576 12.5052 30.4096 12.5052 47.6748z" fill="#000" fill-rule="nonzero"/><g transform="translate(166.541011 24.25)"><g fill-rule="nonzero"><path d="m0 53.4119059h11.3089645l6.9863208-5.1489887.7372561 5.1489887h11.2134116l1.748243-1.4706712 1.011268.0936793.8262514 1.3780224h23.0769576l6.1601631-4.5043815-.7372561 4.5043815h11.0316738l8.2751606-5.7900362-1.3780224 5.7900362h11.216222l11.860736-8.9163016 15.258483-31.2598441 4.229808-9.74039836 1.288933-3.40393088h-11.860735l-5.882592 4.23008858-.185485-4.23008858h-12.1352157l-4.6893045 3.49320724-.3672228-3.5856687h-34.0158889l-1.748243.92180427.4590285-.92180427-12.0424734.0936793-4.6894918 3.40402455-.6445136-3.49648602h-13.1469523l-11.0316738 8.82711895z" fill="#000" stroke="#000" stroke-width=".881804"/><path d="m24.1261657 1.14166957-11.216222 41.73974683h8.4568984l6.8045829-23.351438 2.5744007 23.351438h9.5609089l11.9534781-41.73974683h-8.6420087l-6.0677016 20.03987483-2.2075526-20.03987483z" fill="#fff"/><path d="m55.8834468 1.14166957-11.401707 41.73974683h21.880673l2.5744943-7.3564477h-12.3169537l2.9412488-10.2944178h11.2162221l2.2043675-7.3565414h-11.3979599l2.9413425-9.19387336h12.3207009l-2.3926629 34.20137386h9.7454571l11.0316738-23.5369229-2.3893841 23.5369229h9.3791708l20.22536-41.73974675h-8.827119l-10.294418 20.77713085 2.022536-20.77713085h-9.5609085l-9.7454571 20.41084485 2.022536-20.41084485z" fill="#fff"/></g><path d="m55.8834468 1.14166957-11.401707 41.73974683h21.880673l2.5744943-7.3564477h-12.3169537l2.9412488-10.2944178h11.2162221l2.2043675-7.3565414h-11.3979599l2.9413425-9.19387336h12.3207009l-2.3926629 34.20137386h9.7454571l11.0316738-23.5369229-2.3893841 23.5369229h9.3791708l20.22536-41.73974675h-8.827119l-10.294418 20.77713085 2.022536-20.77713085h-9.5609085l-9.7454571 20.41084485 2.022536-20.41084485z" stroke="#000" stroke-width=".5"/><path d="m24.1261657 1.14166957-11.216222 41.73974683h8.4568984l6.8045829-23.351438 2.5744007 23.351438h9.5609089l11.9534781-41.73974683h-8.6420087l-6.0677016 20.03987483-2.2075526-20.03987483z" stroke="#000" stroke-width=".5"/></g><g transform="translate(157.345645 68.40761)"><g fill-rule="nonzero"><path d="m2.76789825 14.0180377 2.41465217 20.6368158-5.18255042 18.3986502h12.0600631l8.8429843-6.7879496s2.5013026 5.98525 7.6805763 6.7879496c1.4289127.2694172 3.8403792.3595264 3.8403792.3595264 1.7884391 0 2.86092-.0182039 4.6461734-.3595264 2.164258-.4077667 3.3330374-.9215709 5.359128-1.7852534 2.8417149-1.2105573 6.8778767-3.9302153 6.8778767-3.9302153l-1.1591314 5.7154687h11.4311194l5.7186544-3.9302153-.9825538 3.9302153h24.9201861l6.0751772-4.3764831 1.4289126 4.3764831h13.6692855l10.807636-8.6631301-5.092532-23.8507089 15.274866-19.29428052h-12.952962l-6.78795 5.09253229 1.162317-5.18236838h-13.2196494l-2.4146522 2.14487084s-1.8751805-1.07248093-2.6779711-1.60867588c-.8055212-.44599479-2.8577344-.44599479-2.8577344-.44599479h-21.7062931l-3.2173518 2.50130259s-2.2316122-2.32153938-5.1792737-2.94766145c-4.9159548-1.15913135-5.8086725-.71632224-8.1301208-.71632224-4.0201424 0-8.5765708 1.8783662-8.5765708 1.8783662l.0910194-.80552119-13.4863362.09101934-6.7012992 5.35912795-.1802183-5.35912795h-13.2196495l-4.46650124 3.30727888z" fill="#000" stroke="#000" stroke-width=".881804"/><path d="m39.2268797 9.63891502-7.1443814 26.26272148s-.6908368 3.3491478.3567958 5.0026962c.6325845 1.0019409 1.3133182 1.3389856 2.3215394 1.9651076 1.8558845 1.1495743 3.1980557 1.3036701 5.359128 1.6054902 2.4178378.3404124 3.8466595.221177 6.2516636-.1765775 2.0036088-.3304002 3.1692025-.5652301 5.0026962-1.4289127 1.5027294-.7099509 2.3087057-1.2458728 3.5737835-2.324725 1.6601018-1.4096166 3.5737835-4.1067928 3.5737835-4.2866471 0 0 3.7503611-13.3989576 3.7503611-13.2196495l2.861011-10.0057564c-.1802183 0 1.5155631-4.91276911.9793682-6.96780386-.8027907-3.75036104-3.3040932-4.73291486-4.822933-4.91276908-2.8577344-.53610394-3.4773941-.5133491-5.7154687-.53610394-1.5347682-.01820387-2.4113755-.03640774-3.9302153.1802183-2.1192034.3049148-3.34578.58161361-5.2723865 1.51874877-1.2682635.61620096-1.9522739 1.06274186-3.0344029 1.96510764-2.0259995 1.68258359-4.1099784 5.35903692-4.1099784 5.35903692" fill="#fff"/><path d="m13.4684054 2.26634816 3.2173517 23.93808744-4.4665012 16.6164914h9.4660118l4.6462644-16.0803875 16.6137608-24.47419134h-9.6453198l-9.1128567 14.47207564-.8928998-14.47207564z" fill="#fff"/><path d="m49.5120655 10.4580891-6.611372 22.6883919s-.3467837 1.1398352-.0910194 1.788439c.221177.5488467.5461161.8055212 1.0724809 1.0692953.6262131.3149269 1.0885004.2120751 1.7884391.1802183.8601328-.0364077 1.425727-.0546116 2.1449619-.5361039.5106185-.3404124.7709338-.6225724 1.0692042-1.1623171.1829489-.3276696.0910194-1.1591313.3567958-.8928997.0910194.0910193 5.1825505-18.4887593 5.1825505-18.4887593l.8027906-3.2173518s.3850118-.8728755.2694172-1.4289127c-.0728154-.3504245-.212075-.53246315-.4459948-.8027906-.4751209-.53974471-.9825538-.64259657-1.6986029-.71632224-.6262131-.06371354-.9954786.0273058-1.6086759.1802183-.5461161.13470863-.8601328.23391972-1.3389856.53610394-.395024.24757261-.8928998.8027906-.8928998.8027906z" fill="#000" stroke="#000" stroke-width=".5"/><path d="m71.08365 2.26634816-11.0779643 40.55457884h9.6489606l4.822933-16.4371833h4.286647s1.3068558.2439318 1.6086759.8928998c.2057037.4432642 0 1.2521531 0 1.2521531l-3.750361 14.2921304h10.1814238l4.2898327-15.1850302s.6453271-2.0453867 0-3.0375885c-.3531551-.5397448-.7099509-.729065-1.2522442-1.072481-.5779728-.3695385-1.6086758-.7163222-1.6086758-.7163222s1.5733603-.6771839 2.5013025-1.2491495c.8055212-.4978758 1.2940221-.7609217 1.9651077-1.4289127.3850118-.3850118.8928997-1.0723899.8928997-1.0723899l3.2174428-10.89774601s.2284586-1.44493209 0-2.32153939c-.2084343-.79914984-.4396234-1.25552083-.9825538-1.87518052-.5397447-.62257231-.9697201-.87014493-1.698603-1.25224413-.4013953-.2084343-1.0724809-.44599479-1.0724809-.44599479" fill="#fff"/><path d="m79.6394683 9.63891502-2.9476614 9.46874238h5.0925323s.8319168-.3404124 1.2491495-.7126815c.6289436-.5652301.7290649-1.1077964 1.0723899-1.8783662.433252-.9665344.546116-1.5638034.8027906-2.5913207.2694172-1.0660186.7035795-1.6792159.5361039-2.7678073-.0728155-.4687496-.0023665-.8446595-.3567958-1.16240799-.253944-.22754836-.4660191-.29581287-.8027906-.35679583-.3085556-.05461161-.8055212 0-.8055212 0z" fill="#000" stroke="#000" stroke-width=".5"/><path d="m101.211053 2.26634816-11.9708643 40.55457884h10.4517513l5.448964-17.955386 3.304093 17.955386h10.987855l-4.643078-22.5118143 14.291857-18.04185434h-9.468742l-12.150173 13.39895764 3.753638-13.39895764z" fill="#fff"/></g><path d="m101.211053 2.26634816-11.9708643 40.55457884h10.4517513l5.448964-17.955386 3.304093 17.955386h10.987855l-4.643078-22.5118143 14.291857-18.04185434h-9.468742l-12.150173 13.39895764 3.753638-13.39895764z" stroke="#000" stroke-width=".5"/><path d="m71.08365 2.26634816-11.0779643 40.55457884h9.6489606l4.822933-16.4371833h4.286647s1.3068558.2439318 1.6086759.8928998c.2057037.4432642 0 1.2521531 0 1.2521531l-3.750361 14.2921304h10.1814238l4.2898327-15.1850302s.6453271-2.0453867 0-3.0375885c-.3531551-.5397448-.7099509-.729065-1.2522442-1.072481-.5779728-.3695385-1.6086758-.7163222-1.6086758-.7163222s1.5733603-.6771839 2.5013025-1.2491495c.8055212-.4978758 1.2940221-.7609217 1.9651077-1.4289127.3850118-.3850118.8928997-1.0723899.8928997-1.0723899l3.2174428-10.89774601s.2284586-1.44493209 0-2.32153939c-.2084343-.79914984-.4396234-1.25552083-.9825538-1.87518052-.5397447-.62257231-.9697201-.87014493-1.698603-1.25224413-.4013953-.2084343-1.0724809-.44599479-1.0724809-.44599479z" stroke="#000" stroke-width=".5"/><path d="m39.2268797 9.63891502-7.1443814 26.26272148s-.6908368 3.3491478.3567958 5.0026962c.6325845 1.0019409 1.3133182 1.3389856 2.3215394 1.9651076 1.8558845 1.1495743 3.1981467 1.3036701 5.359128 1.6054902 2.4178378.3404124 3.8466595.221177 6.2517546-.1765775 2.0036088-.3304002 3.1692026-.5652301 5.0026052-1.4289127 1.5027294-.7099509 2.3087057-1.2458728 3.5737835-2.324725 1.6601018-1.4096166 3.5737835-4.1067928 3.5737835-4.2866471 0 0 3.7504521-13.3989576 3.7504521-13.2196495l2.861011-10.0057564c-.1802183 0 1.5155631-4.91276911.9792772-6.96780386-.8027907-3.75036104-3.3040932-4.73291486-4.822933-4.91276908-2.8577344-.53610394-3.4773941-.5133491-5.7154687-.53610394-1.5347682-.01820387-2.4113755-.03640774-3.9302153.1802183-2.1192034.3049148-3.34578.58161361-5.2723865 1.51874877-1.2682635.61620096-1.9522739 1.06274186-3.0343119 1.96510764-2.0260905 1.68258359-4.1100694 5.35903692-4.1100694 5.35903692z" stroke="#000" stroke-width=".5"/><path d="m13.4684054 2.26634816 3.2173517 23.93808744-4.4664102 16.6164914h9.4660118l4.6461734-16.0803875 16.6137608-24.47419134h-9.64623l-9.1128567 14.47207564-.8928998-14.47207564z" stroke="#000" stroke-width=".5"/></g><g fill-rule="nonzero" transform="translate(151.536281 112.56522)"><path d="m104.088307 1.14525453-2.390675 1.6474648c-.5979-.3655891-1.9714047-1.18099162-3.0265226-1.60859204-2.8136477-1.13841668-4.6776894-1.21893884-7.6449771-1.17543837-3.6003584.05553253-6.0854388.43222813-9.6932016 2.33514253-1.5956344.84224324-3.5318683 2.45268635-4.4268675 3.23014165-.5997512-1.01809622-1.9510425-3.05891638-3.5105809-3.76695603-3.5883264-1.65672022-5.8790429-1.65394359-9.603424-1.53639975-3.4263565.10921396-5.4144208.52755895-8.4992524 1.78907273-2.1454064.87926492-4.8433614 2.76737064-5.9355009 3.56056015-.4238983-.74598687-1.2217155-2.08894834-1.849233-2.77662606-.8848182-1.18006608-3.2134819-1.64006046-3.4763358-1.68818865l-21.7252479-.00925542-10.0837804 8.01149174-12.2227079 43.89845809h12.4263272l11.1250151-8.524242 1.5049313-4.5999439c.6849011.0120321 2.1750238.0185109 3.2671634-.0971819.7959661-.0860754 1.8297965-.2943223 2.5267297-.4470368-.2591518 1.6687523-.68305 5.5569543.5386654 7.9541082 2.2860888 4.4833255 6.3510694 5.39591 10.4003157 5.7133709.9329464.0805221 1.7613065.1203204 2.5313575.1203204 2.7599663 0 4.8220739-.5136758 7.6588602-1.4586542 2.8728824-.957936 6.5528375-3.3412067 7.7773296-4.1649391.6821245.8514987 2.3721642 2.841414 3.9613199 3.7697327 2.2610991 1.3235251 3.9150427 1.4845694 6.4269638 1.7307635.8996268.0897776 1.7011462.1323526 2.4554629.1323526 2.6174329 0 4.7480306-.4970161 7.8671072-1.8325732 2.9969051-1.265216 7.4524644-4.118662 9.5377106-5.4977197l-1.7511255 6.8527132h11.796033l10.958418-8.3548679 7.533912-26.3640645 9.018481-7.7060628 2.498964-9.13509979h-25.97071z" fill="#231f20"/><path d="m42.3259622 26.5486064c.4997927-.660837.7191462-1.1995025.9755213-1.8233178.1018096-.2563751.2128747-.52941.3554081-.8329878 2.3388447-5.0627149 4.0233312-13.7859484 4.0353633-13.853513.0203619-.07034118.5368143-1.73076356.1758529-2.80809448-.0647879-.26840718-.0851498-.51830353-.0999585-.76079554-.0277663-.37021681-.0555325-.75524229-.2591518-1.19580029-.3331951-.72562495-.7006353-1.0615967-1.2707692-1.5484318-.430377-.36744019-.7737531-.53033558-1.1735872-.71914616-.2054704-.09625637-.428526-.20361924-.6923055-.34985488l-.0407238-.02221301h-20.7506522l-11.1527813 39.87235036-.0620113.22213h9.6395201l3.6762529-12.0755467c.6432517.0277662 3.4430163.1499378 5.824436.1499378 1.5919322 0 2.6933273-.0536815 3.2699399-.1591932 1.5271444-.2684072 2.5146977-.604379 3.9363303-1.3475892 1.5289954-.7959662 2.5396873-1.3235251 3.6142416-2.7451577" fill="#fff"/><path d="m75.358557 7.05669142c-.0499793-.20639587-.0925542-.4118662-.1351292-.61363436-.2054703-.98477671-.397983-1.91587198-1.2698436-2.39160058-1.0597456-.70618857-1.8973612-1.26429041-3.2579079-1.75852984-1.7770407-.64325171-2.9543302-.70063532-4.7369241-.78671072l-.2175024-.00925542c-.6339963-.03239397-1.1448955-.0462771-1.6104431-.0462771-1.2679926 0-2.3508767.11106504-3.8576591.39798306-1.5826769.3017267-2.4850804.52755896-3.9742775 1.14767211-1.7807428.74413579-2.841414 1.30316317-4.4222398 2.65630561-1.1226824.95793599-2.5054422 2.75071088-2.5637514 2.82660533l-7.8273088 27.05359329c-.0138832.1406824-.3165354 3.4911445.816328 5.1895141.6849011 1.0292028 1.3392593 1.441069 2.3295893 2.0639587 1.6345072 1.0301283 2.8997231 1.1939492 4.648072 1.4253348.2156513.0277662.440558.0555325.6728691.088852 1.1199058.15364 1.9936175.2221301 2.8349352.2221301.9847767 0 1.9528937-.0907031 3.3430578-.3109821 2.0315647-.3220887 3.1820134-.5645807 4.9516498-1.4160793 1.5012291-.7200717 2.3323659-1.2800247 3.5420493-2.3906751 1.430888-1.3124186 3.0598419-3.8224885 3.1977477-4.2806318h.0018511c1.024575-3.4198778 3.7095724-12.3624648 3.8409994-12.6678937l-.0832988-.0416494.0953308.0129576 3.0404056-10.727032h-.0481282c.0296173-.131427.0832988-.3313441.1360546-.527559.329493-1.2189388.9394252-3.4892934.5506975-5.11454519" fill="#fff"/><path d="m64.5778435 9.90736085c-.2193535-.43870692-1.1421189-.67379459-1.8788503-.79318951-.2360132-.03887277-.4683243-.05830915-.6923054-.05830915-.9440529 0-1.6900398.33504621-2.5674536.77375313-.7469124.37391898-1.4503244 1.94548938-1.4901227 2.03341578l-6.1289392 21.0209104c-.0231386.1018097-.539591 2.5082189.8977757 3.1783114.6571349.2471197 1.3827598.4738775 2.2138965.4738775.1619699 0 .3257908-.0092555.4905373-.0259152.7774553-.088852 1.4133027-.418345 1.9251274-.68305l.240641-.1240227c.7644977-.4118662 1.0495646-1.2402263 1.2198643-1.7363168.0305429-.0879265.064788-.1906616.0925542-.2573007h.0064788c.1832574 0 .2461942 0 5.2478233-18.2516886l.7746787-3.1172256c.0203619-.0462771.5590274-1.1606297-.351706-2.43417549" fill="#231f20"/><path d="m105.079562 2.63260056-1.932531 7.17942946h6.210387l-9.214697 32.69199528-.062937.2221301h9.556222l9.278559-32.565196h6.652796l2.138002-7.30437767.064788-.22398117" fill="#fff"/><path d="m95.2938066 23.3702951c-.6774968-1.0208728-1.2902056-1.6271029-1.9954686-2.3286637-.309131-.3054289-.638624-.6321452-.9995854-1.0199473-.5460698-.5877192-1.0180962-1.0430859-1.4688352-1.4808673-.5988257-.5830914-1.1643318-1.1310123-1.851084-1.927904-.2517475-.2924713-.4886862-.5303356-.715444-.7617211-.5034949-.5090481-.9375741-.9486806-1.2744714-1.7418701-.4072385-.9625637-.6756457-1.59656-.5090481-2.6063263.1018096-.6154854.1795552-.9838512.5673573-1.3975685.2961734-.31468424.5793893-.38872761 1.0051386-.50164373l.2267578-.06108578c.5673573-.15919322.8792649-.23693875 1.4188559-.17029973.6293686.07867107.9995854.26563056 1.4743885.73765704.3840999.3822488.5423676.6589859.6552837 1.1402677.0944053.4118662.0462771.7061886-.0185108 1.0773309-.0259152.1619699-.0555325.3331952-.0740434.5294101l-.0064788.0555325c-.0620113.6423262-.0999585 1.0301283-.2498963 1.6724544-.1453101.6108578-.5155269 1.541953-.5183036 1.5512085l-.0962563.2406409h9.6682115l.037022-.1277248c.005553-.022213.636773-2.2518438.964415-3.6836573.094405-.4090895.192513-.761721.286918-1.0939906.219353-.7793064.40909-1.453101.41927-2.4462076v-.12032046c.014809-1.49752699.024065-2.57856007-.816328-3.91504275-.592346-.93942516-1.138416-1.38646195-2.0658094-1.97880885-.9320208-.59604906-1.5974855-.76819987-2.6026242-1.03197935l-.1610443-.04164939c-1.0986184-.28691803-1.7899982-.33874838-2.8367863-.41649391l-.7358059-.05553252c-.7422847-.05923469-1.3281528-.10551179-1.9491915-.10551179-.5886447 0-1.1643318.04350047-1.8122113.13605467-.5793893.08329879-.9968087.19436383-1.4373667.31283321-.2591518.07034119-.527559.14253347-.8514987.21565129-.3924298.08792649-.7256249.14160793-1.0495646.19251274-.5608785.09070312-1.0921396.17585298-1.7770407.42852596-1.089363.40353632-1.7029973.83113673-2.554496 1.42533471l-.3720679.25730068c-.9505316.65713484-1.4882716 1.05511791-2.2990464 1.86033947l-.2184279.21287466c-.6275175.62011316-1.0810331 1.06437333-1.5623149 1.92512741-.4164939.74783795-.5664317 1.27354582-.7756042 1.99917072l-.1147672.4007597c-.2684072.9227654-.4053874 1.4049728-.5303356 2.3008975l-.0490537.3489293c-.1332781.9162867-.2276834 1.5808258-.0351706 2.5961454.1388313.7469124.3470782 1.1846938.6339962 1.7918494l.1647465.3498549c.5803149 1.2522583 1.1902471 2.0084261 1.9001378 2.8830634.2896946.3609613.5923469.7339548.9199888 1.1754383.826509 1.1106505 1.2957588 1.7381679 2.1935346 2.8099456.420196.4997927.7774553.8792649 1.1199058 1.2457796.3720679.396132.7246994.7709765 1.1569275 1.2920566.15364.1851084.2933968.3452272.4257494.495165.3239397.3665147.5793893.6571348.8700095 1.145821l.0740433.1249482c.4007597.6663903.6414006 1.069001.7811575 1.8325732.1517889.8292857.133278 1.3235251-.0832988 2.1102358-.1795551.6478794-.3017267 1.0366071-.7469124 1.4993781-.5331122.5571763-.9940321.7867107-1.8251689.9116589-.2684072.0397983-.4877606.0573836-.6904543.0573836-.4877607 0-.9042546-.1156928-1.3883131-.3887277-.5460697-.3054288-.8144769-.5108992-1.069001-.9810745-.2471197-.4553667-.2452686-.7996683-.242492-1.3207485v-.1721508c0-.4609199.088852-.7663488.1989915-1.1522998.0490538-.1702997.099033-.351706.1480868-.5599529.1462356-.6404751.4331536-1.6428371.4350047-1.6539436l.0629369-.2221301h-9.977343l-.0462771.1073629c-.0138832.034245-.3535571.8570519-.527559 1.4133026-.2091725.6543583-.2961734 1.101395-.4072385 1.6696779-.0370217.1925127-.07682.3961319-.1240226.6247408-.0832988.3979831-.175853.7441358-.2610029 1.0690011-.2008426.7607955-.3748445 1.4179303-.3544826 2.3841962.0231386 1.1384167.1230971 1.8816269.626592 3.0422566.3831744.881116.6960076 1.4290369 1.4401434 2.1565129.6293686.6145599 1.1384167.8607541 1.8464563 1.200428l.2980245.1443846c1.4623564.7126674 2.4101115.9070312 4.0788637 1.1541509.7959662.1175438 1.485495.1721508 2.1750238.1721508.7931895 0 1.541953-.0684901 2.5961454-.1721508 2.0658098-.2036192 3.2468014-.3729934 5.1182473-1.0606712 1.3938663-.5118247 2.1842792-.9070311 3.5355706-1.7677852 1.2244921-.7802319 1.9677023-1.2744714 3.0098626-2.3916006 1.0440114-1.1180548 1.562315-1.8853291 2.2194498-3.2838231.7219228-1.5363998.9384996-2.4739738 1.1532254-3.9890861.2822903-2.0019474.4053874-3.1329598-.0925542-4.9729373-.3850255-1.4142282-.8700095-2.1426298-1.6863376-3.3754518" fill="#fff"/><path d="m37.15681 10.4904523c-.2443431-.3072799-.4960905-.4211216-.7894873-.55254856-.0740434-.03331952-.1499378-.06849011-.2332366-.10921396-.4942395-.24249201-1.1550765-.36466356-1.9658513-.36466356-1.354068 0-2.6516779.33967392-2.7062848.3544826l-.097182.02498963-3.702168 12.87614065-.0388728.1323525.1203205.0675645c.022213.0138832.5886447.3387484 1.0014364.4535156.2980246.0851499.5627296.1203205.8792649.1203205.1388313 0 .2758116-.0055533.4276005-.0120321.1018096-.0055532.2073214-.0092554.3239397-.0129575l.1721508-.0037022c.6756457-.0185109 1.1199058-.0296174 1.8048069-.2684072 1.0051387-.3480038 1.5993366-.7996683 2.2740568-1.7252103.3794722-.5229313.5136758-.9570105.6682413-1.4595798.064788-.210098.1351291-.4350047.2286089-.6821245.7246994-1.9186486 1.487346-5.066417 1.4919737-5.08863.0129576-.0435005.3267164-1.0828842.3563337-1.7937004.0092554-.175853.0305429-.3424506.0490537-.5016438.0629369-.5016438.1203205-.9755213-.2610028-1.453101" fill="#000"/></g></g></svg>